<?xml version="1.0" encoding="UTF-8"?>
<svg width="1440px" height="4616px" viewBox="0 0 1440 4616" version="1.1" xmlns="http://www.w3.org/2000/svg" xmlns:xlink="http://www.w3.org/1999/xlink">
    <!-- Generator: Sketch 51.1 (57501) - http://www.bohemiancoding.com/sketch -->
    <title>background</title>
    <desc>Created with Sketch.</desc>
    <defs>
        <rect id="path-1" x="3089" y="3904" width="1369" height="1369" rx="100"></rect>
        <filter x="-4.5%" y="-4.4%" width="111.0%" height="111.0%" filterUnits="objectBoundingBox" id="filter-2">
            <feOffset dx="13" dy="15" in="SourceAlpha" result="shadowOffsetOuter1"></feOffset>
            <feGaussianBlur stdDeviation="22.5" in="shadowOffsetOuter1" result="shadowBlurOuter1"></feGaussianBlur>
            <feColorMatrix values="0 0 0 0 0.0901960784   0 0 0 0 0.501960784   0 0 0 0 0.878431373  0 0 0 0.271031476 0" type="matrix" in="shadowBlurOuter1"></feColorMatrix>
        </filter>
        <path d="M1324.39615,5326.48822 L3628.48835,5326.48289 C3683.71682,5326.48277 3728.48844,5371.25419 3728.48857,5426.48267 C3728.48857,5426.48274 3728.48857,5426.48281 3728.48857,5426.48289 L3728.48835,7660.48953 C3728.48835,7715.71801 3683.71682,7760.48953 3628.48835,7760.48953 C3620.56007,7760.48953 3612.65993,7759.54668 3604.95434,7757.68084 L444.990052,6992.52388 C391.312774,6979.52641 358.335274,6925.47585 371.332745,6871.79857 C373.611863,6862.38621 377.246147,6853.35483 382.121762,6844.98732 L1237.99408,5376.14297 C1255.90889,5345.39764 1288.81222,5326.4883 1324.39615,5326.48822 Z" id="path-3"></path>
        <filter x="-2.2%" y="-2.5%" width="104.5%" height="106.2%" filterUnits="objectBoundingBox" id="filter-4">
            <feOffset dx="0" dy="15" in="SourceAlpha" result="shadowOffsetOuter1"></feOffset>
            <feGaussianBlur stdDeviation="22.5" in="shadowOffsetOuter1" result="shadowBlurOuter1"></feGaussianBlur>
            <feColorMatrix values="0 0 0 0 0.0901960784   0 0 0 0 0.501960784   0 0 0 0 0.878431373  0 0 0 0.212890625 0" type="matrix" in="shadowBlurOuter1"></feColorMatrix>
        </filter>
        <rect id="path-5" x="1877.08135" y="3913.08135" width="715" height="715" rx="100"></rect>
        <filter x="-10.5%" y="-8.4%" width="121.0%" height="121.0%" filterUnits="objectBoundingBox" id="filter-6">
            <feOffset dx="0" dy="15" in="SourceAlpha" result="shadowOffsetOuter1"></feOffset>
            <feGaussianBlur stdDeviation="22.5" in="shadowOffsetOuter1" result="shadowBlurOuter1"></feGaussianBlur>
            <feColorMatrix values="0 0 0 0 0.0901960784   0 0 0 0 0.501960784   0 0 0 0 0.878431373  0 0 0 0.212890625 0" type="matrix" in="shadowBlurOuter1"></feColorMatrix>
        </filter>
        <path d="M1686.00353,1395.99958 L2849,1395.99454 C2904.22847,1395.99432 2949.00018,1440.76567 2949.0004,1495.99415 C2949.0004,1495.99428 2949.0004,1495.99441 2949.0004,1495.99454 L2949,2710.7398 C2949,2744.47185 2931.99399,2775.93066 2903.77159,2794.40624 L1852.42772,3482.66039 C1806.22002,3512.9099 1744.2392,3499.97324 1713.98969,3453.76554 C1704.42303,3439.15197 1698.85083,3422.28754 1697.8278,3404.85106 L1586.17561,1501.85669 C1582.94081,1446.72303 1625.01316,1399.40605 1680.14682,1396.17125 C1682.09696,1396.05684 1684.05004,1395.99959 1686.00353,1395.99958 Z" id="path-7"></path>
        <filter x="-5.5%" y="-3.4%" width="110.9%" height="107.1%" filterUnits="objectBoundingBox" id="filter-8">
            <feOffset dx="0" dy="2" in="SourceAlpha" result="shadowOffsetOuter1"></feOffset>
            <feGaussianBlur stdDeviation="24.5" in="shadowOffsetOuter1" result="shadowBlurOuter1"></feGaussianBlur>
            <feColorMatrix values="0 0 0 0 0.0901960784   0 0 0 0 0.501960784   0 0 0 0 0.878431373  0 0 0 0.271031476 0" type="matrix" in="shadowBlurOuter1"></feColorMatrix>
        </filter>
    </defs>
    <g id="Page-1" stroke="none" stroke-width="1" fill="none" fill-rule="evenodd">
        <g id="White-Landing-">
            <g id="background" transform="translate(-2138.000000, -2487.000000)">
                <path d="M2294.22967,124.477831 L3703.21215,71.0719855 C3758.40099,68.9801164 3804.83619,112.023719 3806.92806,167.212564 C3807.04931,170.411665 3807.01688,173.614744 3806.83086,176.810733 L3650.89895,2855.89716 C3649.46546,2880.52616 3638.97834,2903.75598 3621.45378,2921.12065 L2933.21788,3603.07703 C2893.98688,3641.95007 2830.67105,3641.6599 2791.79801,3602.4289 C2777.33374,3587.83144 2767.71789,3569.13221 2764.25884,3548.87546 L2199.44416,241.238504 C2190.14787,186.798047 2226.74444,135.129201 2281.1849,125.832906 C2285.49882,125.096258 2289.85644,124.643593 2294.22967,124.477831 Z" id="Rectangle-6" fill="#91B7DC" opacity="0.297283116" transform="translate(3002.500000, 1851.500000) rotate(-317.000000) translate(-3002.500000, -1851.500000) "></path>
                <g id="BG" transform="translate(3773.500000, 4588.500000) rotate(-315.000000) translate(-3773.500000, -4588.500000) ">
                    <use fill="black" fill-opacity="1" filter="url(#filter-2)" xlink:href="#path-1"></use>
                    <use fill="#F6F9FD" fill-rule="evenodd" xlink:href="#path-1"></use>
                </g>
                <g id="BG" transform="translate(2048.488345, 6543.488345) rotate(-315.000000) translate(-2048.488345, -6543.488345) ">
                    <use fill="black" fill-opacity="1" filter="url(#filter-4)" xlink:href="#path-3"></use>
                    <use fill="#F6F9FD" fill-rule="evenodd" xlink:href="#path-3"></use>
                </g>
                <g id="BG" transform="translate(2234.581349, 4270.581349) rotate(-315.000000) translate(-2234.581349, -4270.581349) ">
                    <use fill="black" fill-opacity="1" filter="url(#filter-6)" xlink:href="#path-5"></use>
                    <use fill="#F6F9FD" fill-rule="evenodd" xlink:href="#path-5"></use>
                </g>
                <g id="BG" transform="translate(2267.500000, 2447.500000) rotate(-315.000000) translate(-2267.500000, -2447.500000) ">
                    <use fill="black" fill-opacity="1" filter="url(#filter-8)" xlink:href="#path-7"></use>
                    <use fill="#F6F9FD" fill-rule="evenodd" xlink:href="#path-7"></use>
                </g>
            </g>
        </g>
    </g>
</svg>